<?xml version="1.0" encoding="UTF-8" standalone="no"?>
<!-- Created with Inkscape (http://www.inkscape.org/) -->

<svg
   version="1.1"
   id="svg1"
   width="1000"
   height="500"
   viewBox="0 0 1000 500"
   xml:space="preserve"
   xmlns="http://www.w3.org/2000/svg"
   xmlns:svg="http://www.w3.org/2000/svg"><defs
     id="defs1" /><g
     id="g1"><g
       id="g2"><path
         style="display:inline;fill:#7c17fc;fill-opacity:1;stroke:none;stroke-width:0.731357"
         d="m 537.89004,186.46795 2.22883,-0.71995 -14.85884,34.55777 h 1.48588 c -3.47383,8.50493 -7.99805,16.46678 -10.88847,25.19837 -1.75569,5.30368 -3.79823,14.41687 -7.99633,18.35991 -7.47237,7.01836 -22.12275,11.61966 -31.63526,15.47791 l 22.47971,-43.19722 10.20974,-20.15869 c -5.55084,2.95042 -9.49872,12.46906 -11.88707,17.99883 h -0.74294 c 9.84267,-22.90918 21.74298,-45.79549 33.66973,-67.67563 5.81548,-10.6687 16.90823,-24.20351 19.07916,-35.99767 h -0.74295 l -0.74294,2.87981 h -0.74294 c 2.58157,-8.68431 15.24568,-19.44208 13.13734,-28.79813 -0.54247,-2.40727 -2.79197,-8.83644 -5.07503,-10.045998 -3.56629,-1.889439 -8.28392,2.480632 -11.77702,3.174749 -9.43216,1.874244 -21.69006,-3.727237 -28.89448,5.564659 -7.23602,9.33263 -10.8882,21.96794 -16.51382,32.26459 -8.10946,14.84284 -14.1553,30.55051 -21.56998,45.35706 -8.22352,16.42174 -16.91278,32.55979 -22.17477,50.39675 h 1.48589 c -8.9349,21.1043 -20.56672,43.08524 -25.38614,65.51576 -1.37801,6.41359 -5.56961,18.62858 0.52279,24.10842 3.63413,3.2688 10.3475,0.28898 14.46216,-0.72602 14.96232,-3.69098 25.2145,-10.65354 37.1471,-20.29702 3.79325,-3.0656 11.34959,-7.20019 11.14413,-12.44477 l 11.14413,-9.3594 c -2.6948,7.11134 -8.60822,22.98011 -1.3162,29.20531 4.91007,4.19176 22.69873,-1.73625 28.06212,-4.13749 18.36173,-8.22062 32.86425,-25.23722 46.80535,-38.74693 -3.21401,9.55551 -7.21208,20.08953 -7.42943,30.23805 l 2.97177,-0.71996 c -0.64064,2.60636 -3.18498,11.8976 0.23562,13.20524 2.84806,1.08881 5.48133,-2.09298 7.04761,-3.87475 4.94221,-5.6221 11.7387,-10.55978 15.00503,-17.24998 l 2.22883,0.71996 c 9.32069,-15.57801 19.63591,-31.28261 26.00297,-48.23689 12.13181,13.49953 23.44036,27.31236 37.89005,38.68028 11.89043,9.35447 24.74376,16.95059 37.1471,25.19784 15.88462,10.56201 31.01456,21.13893 49.90327,24.91895 10.79487,2.16025 25.18781,10.84618 36.27801,7.6767 -2.10238,-4.36591 -6.65483,-8.08665 -11.14413,-10.07935 -0.23054,-5.22942 -9.85097,-12.30899 -14.85884,-13.67911 -1.21412,-7.29705 -12.6272,-12.18226 -17.51531,-17.30499 -4.07957,-4.27543 -8.76508,-5.68862 -13.13157,-9.09553 -9.9844,-7.79011 -20.29287,-18.03077 -28.46003,-27.596 -6.20026,-7.26166 -14.27223,-21.74827 -24.1026,-24.47842 v -0.71995 l 1.48588,-0.71995 -10.40119,-12.95917 20.05944,-8.63943 v 0.71995 l -1.48589,1.4399 c 6.28921,-1.44764 18.85483,-6.14223 20.05944,-12.95916 5.67556,-1.61783 10.63536,-5.3148 15.60178,-8.33391 13.54517,-8.23417 28.62794,-18.07754 35.62675,-32.70344 6.64056,-13.8773 -1.24919,-32.70125 -16.31026,-37.12146 -8.61567,-2.52858 -17.03187,-3.01652 -26.00297,-3.19594 l 0.74294,-2.15985 c -30.49231,-0.24458 -65.2405,4.89176 -91.38187,21.5986 -1.61434,6.41367 -12.1518,7.10242 -15.88211,12.3692 -4.3904,6.19874 8.44308,3.16688 10.68152,2.02987 2.11464,2.84141 5.58272,2.15986 8.9153,2.15986 -12.58213,17.1239 -20.7529,38.43425 -28.08161,57.59628 -1.27766,3.34069 -4.07195,5.99459 -5.34733,9.35663 -2.68551,7.07917 -5.89221,13.75857 -9.01393,20.88142 -1.27698,2.91364 -1.76767,7.37552 -4.14119,9.65605 -7.62441,7.32573 -22.87259,10.02938 -32.16779,15.54232 l 23.21521,-45.35707 9.47424,-19.43875 c -4.85697,3.68472 -8.70405,10.84971 -10.40119,16.55893 h -0.74295 l 14.1159,-30.23804 h 0.74295 l 8.92908,-17.27888 27.47508,-53.27657 -2.22883,0.71996 c 3.59155,-8.31778 14.91385,-19.379418 13.87974,-28.769797 -0.25552,-2.320292 -3.55532,-9.507568 -5.81684,-10.382103 -3.89632,-1.506749 -8.11115,2.613431 -11.77761,3.371437 -8.99702,1.85999 -18.92267,-3.168652 -26.5877,4.255829 -8.03279,7.780717 -11.70347,21.143754 -16.68754,30.804674 -7.35886,14.26404 -16.68605,28.45184 -22.77269,43.19722 -0.86841,2.10375 -0.3683,4.39037 -1.29779,6.47958 -3.03648,6.8251 -8.8296,11.96153 -10.6632,19.43874 m -398.21693,-66.23572 3.71471,0.71995 c -6.71386,2.70875 -13.12262,6.39992 -20.05944,8.57279 -6.19299,1.93988 -14.12308,2.96853 -18.57355,7.98614 l 5.20059,-0.71995 c -6.29893,5.75879 -15.47564,8.22129 -23.0312,12.00087 -13.43346,6.71991 -25.93837,14.98531 -37.1471,24.77121 -2.94522,2.57133 -16.640337,10.40869 -15.25897,14.83572 0.85607,2.74355 6.03391,1.34016 7.89605,0.74549 7.72197,-2.46597 14.69859,-6.88505 22.22176,-9.87603 v 0.71995 l -12.63002,6.47958 c 2.08269,6.06099 17.04948,-1.25139 21.54532,-2.58206 11.7224,-3.46961 23.37936,-4.56843 34.91828,-8.13612 10.39054,-3.21264 20.06711,-8.37311 30.46062,-11.60037 -3.10067,12.32968 -10.08226,24.50122 -15.76688,35.99767 -1.33872,2.70738 -6.09911,10.52699 -1.32078,11.51925 l -8.91531,15.83898 11.88707,-2.15986 v 0.71995 l -21.54531,8.63945 0.74294,2.15985 c -11.00985,5.30756 -22.52681,11.62565 -32.68945,18.42157 -2.32168,1.55253 -9.47662,4.69684 -8.97378,8.07337 0.88057,5.91286 17.42634,0.10999 20.86085,-0.57661 v 0.71995 c -2.69674,0.8016 -3.9688,1.56225 -4.45765,4.31972 l 20.05943,-2.15985 c -10.25158,21.27756 -17.02302,43.29194 -22.66202,66.23572 -1.7083,6.95073 -7.3799,16.82223 -4.08389,23.75846 l 7.42942,-6.47959 c 0.11457,8.90012 -1.33147,12.43133 -8.91531,17.27889 v 0.71996 l 8.17237,-2.15986 c -8.00355,6.37763 -17.77843,10.87206 -26.74592,15.83844 -4.81564,2.66696 -9.97667,4.6492 -11.88707,10.07988 l 4.45765,0.71996 C 34.608143,399.86776 22.352278,405.9744 11.887073,413.73104 7.439158,417.02778 0.933198,419.64807 0,425.49251 c 9.901486,-0.007 19.633476,-3.53517 28.97474,-6.47959 v 0.71996 l -5.943536,5.03967 C 38.136961,422.79171 55.5571,414.10174 69.09361,407.49367 l -6.68648,8.63945 39.37593,-16.55894 v 1.43991 c 11.95321,-3.33559 20.60781,-10.5509 31.20357,-15.99119 16.16619,-8.30039 33.9387,-14.78762 49.03417,-25.07226 13.1276,-8.94393 26.73971,-21.27277 41.60476,-27.33213 -14.46806,12.91399 -31.2344,22.81339 -47.54829,33.35787 -5.49729,3.55315 -16.43064,8.56835 -18.57356,14.87901 18.67871,-9.53384 36.33957,-21.54389 53.49183,-33.42114 3.42559,-2.37211 17.22477,-8.89981 14.85884,-13.37584 20.94855,-12.5297 38.34257,-29.18535 54.45032,-46.78643 5.67176,-6.1976 14.90625,-12.9799 18.07595,-20.86085 4.087,-10.16165 9.97975,-20.95458 9.13029,-32.42625 -1.62312,-21.91969 -28.49078,-27.20043 -46.73828,-25.98275 -9.74672,0.65044 -20.17822,1.43684 -29.71768,3.66419 v -0.71995 l 40.11887,-21.5986 c 0,0 -19.91369,9.91716 -23.77415,16.55893 19.79308,-5.52331 37.99412,-21.7561 54.23477,-33.44229 14.03879,-10.1018 30.81861,-19.33548 42.22962,-32.07348 9.48249,-10.58522 13.32136,-29.38478 2.73039,-40.905134 -9.74603,-10.601246 -22.66095,-6.728069 -34.55882,-10.93152 l 0.74294,-2.159854 c -17.84262,-0.01144 -35.65723,-1.633037 -53.49182,0.122769 -26.96353,2.654568 -53.28111,11.090068 -78.75186,19.315969 -10.09062,3.25882 -20.58062,5.1004 -30.46063,8.92718 -3.5211,1.36384 -8.24228,2.30526 -10.40118,5.47189 m 626.30014,41.03735 c -6.53595,5.48305 -8.3939,12.32063 -13.22451,18.59659 -13.94042,18.11151 -26.20268,40.15907 -34.35988,61.31825 -2.97356,7.71322 -8.3321,17.79459 -4.07928,25.05669 1.31152,2.23958 2.44659,5.01019 5.60179,5.20249 4.56924,0.27846 11.42622,-8.5113 14.32749,-11.54707 5.42741,-5.67891 11.75587,-9.51074 16.96151,-15.89672 4.26605,-5.23329 7.49554,-12.6187 12.68165,-16.98838 3.61984,-3.04996 10.27095,-3.2444 14.72125,-4.85134 12.36285,-4.46411 24.40312,-8.56227 36.40416,-14.09354 l 2.97177,41.75731 h 1.48588 v -12.95917 h 0.74294 c 0.12333,14.44064 5.64413,29.54126 11.88708,42.47727 5.9867,0.6372 6.07451,8.52308 11.16248,10.73706 2.7552,1.19894 4.0922,-1.27638 4.35839,-3.54087 0.66137,-5.626 0.0809,-11.61299 0.0809,-17.27554 h 0.74294 l 2.22883,6.47958 c 5.58469,-3.31084 3.28172,-17.28592 3.75772,-23.03852 0.73901,-8.93215 0.67831,-18.2896 1.56902,-27.35823 0.47422,-4.8281 2.48938,-9.6267 2.65246,-14.39907 0.21166,-6.19387 -1.68151,-14.29844 1.69673,-20.08316 5.07377,-8.68817 24.48588,-12.33549 25.98529,-23.11405 -5.52972,0.004 -18.0139,5.53658 -22.6425,2.8959 -2.79376,-1.59388 -0.27578,-7.13292 0.11345,-9.37548 1.15579,-6.65821 7.93796,-23.20149 3.9555,-28.79814 4.01263,-6.18864 3.28231,-18.60133 4.51731,-25.91833 0.5069,-3.0032 1.3838,-6.57607 -1.12482,-8.999934 -4.10245,-3.96392 -13.05446,-3.041222 -18.37749,-5.077474 -5.80185,-2.219403 -10.21887,-6.466268 -16.96151,-4.980257 -25.83351,5.693445 -39.12675,26.302155 -53.25795,46.415905 -4.51516,6.42663 -10.04369,12.10193 -14.30164,18.71878 -1.75772,2.73169 -4.18432,5.62535 -2.27697,8.63945 m 126.30015,8.63944 c -3.42021,9.88921 -8.54294,19.55159 -12.19324,29.5181 -0.72919,1.99072 -4.11523,8.87506 -1.17971,9.35939 -4.88589,13.99453 -9.79317,27.65317 -10.94458,42.47669 -0.37675,4.85005 -2.39175,9.60384 -0.9425,14.39964 h 0.74295 l 1.48588,-2.87982 h 0.74294 l -0.74294,15.11902 c 11.93856,-0.74451 16.45698,-17.59931 23.59532,-24.9834 8.9971,-9.30689 16.53945,-22.10008 21.82556,-34.05278 1.44115,-3.25869 1.09673,-6.79047 2.79925,-10.0688 5.62667,-10.83433 11.03485,-22.45184 16.89503,-33.12841 4.63402,-8.44266 10.88135,-16.58191 13.63675,-25.91832 l -11.88713,15.11902 c 2.69703,-10.08533 8.48923,-19.44477 13.03243,-28.79814 3.12,-6.42351 5.3492,-13.07227 8.4097,-19.43875 1.0613,-2.20767 3.9383,-5.21417 3.2366,-7.81947 -1.35755,-5.03961 -33.7852,-6.37423 -46.21023,2.59313 -8.85408,6.39007 -10.02867,21.42758 -14.30163,30.42471 -3.226,6.79259 -5.84584,13.77971 -8.24814,20.87865 -0.66137,1.95452 -2.59659,6.74017 0.24769,7.19954 M 619.61366,118.07237 v 0 m -330.60921,7.19954 c -6.52999,11.05056 -22.21904,17.66469 -32.6602,24.71839 -5.16877,3.49184 -9.24946,8.08502 -14.18814,11.49816 -8.99336,6.21535 -19.37506,10.56425 -28.93175,15.86283 -13.19151,7.31384 -25.54113,15.80919 -39.37593,22.07583 l 12.63001,-22.31857 h -1.48588 c 2.52967,-8.96277 8.08169,-17.77063 12.63002,-25.91832 1.55447,-2.7846 2.96176,-7.3082 5.5709,-9.2955 6.57822,-5.01036 20.6066,-5.95728 28.60443,-7.53561 18.81572,-3.71314 37.67005,-11.47983 57.20654,-9.08721 m 356.61218,70.55544 c 4.61373,-12.49378 13.16228,-24.61254 20.14487,-35.99767 2.49885,-4.07439 4.43547,-10.14685 8.36839,-13.14751 3.42763,-2.61514 9.03951,-1.77123 13.0915,-2.60816 5.73916,-1.18543 24.17429,-2.97566 27.22682,3.61255 3.05141,6.58575 -8.89874,13.55464 -13.11092,16.54673 -16.98691,12.06651 -35.11395,25.84159 -55.72066,31.59406 m -21.54532,-48.23689 v 0.71995 l -5.20059,2.15987 5.20059,-2.87982 m 194.65082,2.15987 c -0.48477,5.95139 -2.18499,12.78971 -1.89926,18.65436 0.19146,3.92864 2.67482,8.27011 -0.28365,11.99419 -1.62437,2.04473 -5.07586,2.33466 -7.47534,2.97816 -6.42414,1.72281 -12.82125,3.80779 -19.31649,5.25077 l 10.6477,-15.81063 18.32704,-23.06685 M 341.0104,290.14126 h -0.74294 l 10.5038,-25.9189 5.37659,-14.3985 10.86552,-22.31856 -11.88707,15.83897 c 7.8422,-14.50373 14.47793,-29.87323 21.84968,-44.63711 1.75369,-3.51224 8.05981,-12.47461 6.06797,-16.34115 -1.45755,-2.82937 -5.92754,-2.54436 -8.60116,-2.43042 -8.33755,0.35541 -17.31448,-0.53437 -25.26003,1.65044 -16.70746,4.5941 -19.53896,18.72323 -25.58105,32.96011 -4.95267,11.66989 -11.14349,23.58265 -13.79487,35.99767 l 2.22882,0.71996 c -9.07617,21.01386 -19.63427,45.64761 -18.5443,69.11553 0.70011,15.07385 14.36062,25.38552 29.68843,21.41141 10.52809,-2.7297 18.43248,-11.60573 25.26003,-19.25207 10.86335,-12.16627 21.48066,-24.91601 32.68945,-36.71711 l -2.97177,22.31856 h 0.74295 l 1.48588,-3.59976 h 0.74294 l 1.48589,17.27888 4.45765,-2.15986 c -0.53676,3.31167 0.0707,16.2573 6.54718,12.92527 4.29853,-2.21148 4.06201,-8.58279 7.16459,-11.81314 9.63667,-10.03355 12.18373,-22.53523 16.72591,-34.94995 3.71983,-10.16715 8.22591,-20.34084 12.56354,-30.23804 3.68451,-8.40699 10.73112,-15.692 11.23355,-25.19837 h -0.74294 l -7.42942,13.67911 h -0.74295 c 6.94137,-20.05333 17.44649,-41.5484 28.52646,-59.75614 2.3976,-3.93997 8.87308,-18.55022 -1.78054,-13.67911 -0.17762,-2.52726 0.20673,-7.57929 -2.46445,-8.97833 -3.80154,-1.99108 -7.87593,1.65483 -10.90851,3.39367 -8.45527,4.84809 -19.56059,6.2234 -26.49311,13.62911 -5.63107,6.01542 -7.078,15.66751 -10.41665,22.91354 -2.4708,5.36247 -7.133,10.30495 -10.61676,15.11903 -6.53625,9.03215 -13.45272,17.73364 -20.05196,26.63827 -2.46317,3.32365 -3.72596,7.57934 -6.29383,10.67711 -9.62351,11.60929 -23.79691,22.88092 -30.88252,36.11988 m -82.46657,-49.6768 c -1.09552,6.8019 -6.84895,10.99231 -11.88421,15.32402 -9.44467,8.12504 -19.25082,15.45716 -29.72054,22.36131 -8.93036,5.88904 -15.8216,13.43524 -24.51709,19.17044 -11.38419,7.50853 -24.03248,13.08101 -35.66122,20.21757 -7.58318,4.65377 -13.73936,10.96013 -21.54532,15.18015 -4.32009,2.3355 -9.18815,2.70153 -13.37295,4.96467 -11.92094,6.44679 -22.65672,15.54833 -35.66122,20.13426 2.20062,-5.62626 11.29683,-21.31597 17.83061,-21.5986 l 18.57355,-29.5181 h -1.48589 c 4.13835,-11.02002 11.74661,-19.88616 16.95525,-30.23804 2.44711,-4.86352 3.43643,-13.06296 7.93215,-16.6139 6.58781,-5.20336 20.48204,-6.16513 28.60443,-8.1334 18.15481,-4.39944 36.21192,-8.46487 54.97771,-10.64209 9.7343,-1.12935 19.24066,-2.854 28.97474,-0.60829 m -167.9049,49.6768 -0.74294,0.71995 0.74294,-0.71995 m -0.74294,1.4399 -0.74294,0.71995 0.74294,-0.71995 m 662.70431,5.03967 v 0.71996 c 3.7676,2.70641 8.25951,8.11301 12.69651,9.48269 3.32228,1.02562 7.16745,-1.30281 10.33469,-2.02372 8.21909,-1.87085 16.30706,-4.37175 24.51709,-6.36129 3.60163,-0.87274 7.70416,-1.42242 9.65825,-4.69745 -18.7662,-3.37606 -38.43656,2.50428 -57.20654,2.87981 m -421.24815,82.79465 20.05944,-2.87981 c -5.81108,6.55635 -15.59403,8.15801 -23.77415,10.7993 -15.85812,5.12053 -30.54159,11.41424 -46.0624,17.22945 -7.24748,2.71543 -17.10429,3.21 -22.28826,9.40883 l 5.20059,0.71995 v 0.71996 l -31.20357,14.063 -9.65824,7.5356 23.0312,0.71996 c -6.33238,7.95086 -18.86857,11.98372 -27.48886,17.31777 -2.58431,1.59911 -8.64842,5.12409 -4.45765,7.8806 -4.52766,6.22797 -11.22756,9.1569 -17.0871,13.91354 -3.19666,2.59498 -5.1881,6.12725 -8.25033,8.78833 -4.96668,4.31598 -10.52902,7.41357 -12.55261,14.01575 5.17325,1.37506 10.74778,-1.60284 15.60178,-3.30201 11.22389,-3.92903 22.34626,-7.95182 33.43239,-12.24923 17.01439,-6.59536 33.56816,-15.7379 50.52006,-21.9119 2.40214,-0.87486 4.96387,-0.13492 7.42942,-0.88215 6.30952,-1.9123 12.42499,-4.97135 18.57355,-7.33563 15.51883,-5.9673 31.72416,-14.22602 48.29124,-16.95503 v 0.71996 l -6.68648,2.87981 v 0.71996 c 17.88344,-2.54985 35.77689,-11.55301 52.74888,-17.3811 17.04065,-5.85165 33.80872,-12.05834 50.52006,-18.52377 7.29729,-2.82326 15.24637,-3.69657 22.28827,-7.29235 l -2.22883,-0.71995 v -0.71995 l 66.12184,-18.40328 52.00595,-15.43454 v -0.71995 c -21.75305,1.72404 -42.88904,13.96171 -64.63596,14.39907 v -0.71995 c 4.07452,-0.81716 10.05538,-1.64837 12.63001,-5.03967 h -3.71471 v -0.71996 l 122.58544,-31.58744 66.12184,-16.64944 v -0.71996 l -11.14413,-8.63944 -46.80535,7.19954 v -0.71996 L 697.62259,309.58 c -8.24442,-8.39996 -16.81868,-5.32997 -27.48886,-3.90588 -20.63542,2.75415 -41.15352,6.47625 -61.66419,10.05216 -70.31042,12.25824 -141.03357,24.27272 -209.50966,44.10045 -15.70739,4.54822 -31.83478,7.63886 -47.54829,12.37089 -6.36416,1.91656 -14.80833,3.11082 -20.05944,7.21786 m 470.28232,-59.75613 0.74294,0.71995 -0.74294,-0.71995 m -401.1887,44.63711 v 0.71996 l -22.28827,5.75963 c 5.19597,-4.14211 15.66536,-5.95536 22.28827,-6.47959 m -23.03121,6.47959 v 0.71995 l -23.77414,6.47958 c 4.539,-5.0402 17.01942,-6.91773 23.77414,-7.19953 m 141.90193,4.31972 v 0.71995 l -31.9465,9.3594 c 6.72624,-5.26084 23.34363,-9.35149 31.9465,-10.07935 M 251.11441,479.48902 c 20.89387,-3.58465 43.79987,-14.68724 63.15008,-23.03851 -4.6552,-1.75655 -11.11511,1.95754 -15.60179,3.35202 -11.57244,3.59678 -22.98737,7.55749 -34.17533,12.18366 -4.47103,1.84871 -10.64116,3.37865 -13.37296,7.50283 m 13.37296,-15.83898 v 0.71995 l -27.48886,8.63945 c 6.83887,-4.95852 18.98991,-8.68673 27.48886,-9.3594 z"
         id="path2" /><path
         d="m 945.17786,31.080434 -5.52137,7.701498 -6.7317,7.095054 c -1.77073,2.549217 -5.61667,9.452378 -8.66602,8.80688 l -6.68796,8.852903 c -2.87797,-1.57075 -10.12692,8.128688 -8.03115,10.45204 -2.25248,3.77994 -8.66485,11.786204 -5.50751,16.81477 1.50453,2.396241 6.3539,1.338975 8.51919,0.896471 7.43489,-1.51937 17.44398,-0.381825 24.07175,-5.06173 3.27743,-2.314252 5.74683,-9.47253 7.66086,-13.199624 5.68359,-11.067313 13.72009,-24.352324 16.45425,-36.857188 l -0.50192,-0.550113 c -2.49556,3.708101 -5.50725,6.642009 -9.03507,8.801723 l 8.23961,-19.253764 5.81489,-9.351822 c -8.24342,0.981252 -8.97355,10.28526 -16.69075,11.272257"
         style="display:inline;fill:#7c17fc;fill-opacity:1;stroke:none;stroke-width:0.525476"
         id="path1-1" /><path
         d="m 979.45713,31.236148 -5.64924,8.067482 -3.76658,1.93988 c -1.81174,2.670359 -4.41209,9.108778 -7.53206,8.432605 l -11.29856,15.55873 c -2.94463,-1.645394 -10.36147,8.514972 -8.21716,10.948733 -2.30465,3.959567 -8.86553,12.346298 -5.63507,17.61383 1.53938,2.510112 6.50107,1.402599 8.7165,0.939071 7.60709,-1.591572 17.848,-0.399975 24.62927,-5.302269 3.35334,-2.42423 5.87993,-9.922677 7.83829,-13.826887 5.81523,-11.593245 14.03786,-25.509574 16.83534,-38.608684 l -0.51354,-0.576255 -9.24433,9.219991 L 995.83272,25.47365 1000,15.677419 c -10.62985,8.34624 -12.65813,14.56215 -20.54287,15.558729"
         style="display:inline;fill:#7c17fc;fill-opacity:1;stroke:none;stroke-width:0.544009"
         id="path1-1-3" /></g></g></svg>
