<?xml version="1.0" encoding="UTF-8"?>
<svg xmlns="http://www.w3.org/2000/svg"
     width="380.85" height="230.13"
     viewBox="0 0 380.85 230.13">
  <g fill="none" stroke="#4a4a6a" stroke-width="0.85" stroke-linecap="round" stroke-linejoin="round">
    <path d="M 380.4,32.4 C 380.4,14.8 366.1,0.4 348.4,0.4"/>
    <path d="M 348.4,0.4 H 215.4"/>
    <path d="M 215.4,0.4 H 165.4"/>
    <path d="M 165.4,0.4 H 32.4"/>
    <path d="M 32.4,0.4 C 14.8,0.4 0.4,14.8 0.4,32.4"/>
    <path d="M 0.4,32.4 V 184.3"/>
    <path d="M 0.4,184.3 C 0.4,199.1 11.1,211.4 25.2,213.9"/>
    <path d="M 25.2,213.9 L 113.8,229.5"/>
    <path d="M 113.8,229.5 C 114.6,229.6 115.5,229.7 116.4,229.7 C 119.1,229.7 121.7,229.0 123.9,227.7"/>
    <path d="M 123.9,227.7 L 141.7,217.4"/>
    <path d="M 141.7,217.4 C 143.9,216.2 146.4,215.4 149.2,215.4"/>
    <path d="M 149.2,215.4 H 157.2"/>
    <path d="M 157.2,215.4 H 223.7"/>
    <path d="M 223.7,215.4 H 231.7"/>
    <path d="M 231.7,215.4 C 234.4,215.4 237.0,216.2 239.2,217.4"/>
    <path d="M 239.2,217.4 L 256.9,227.7"/>
    <path d="M 256.9,227.7 C 259.2,229.0 261.7,229.7 264.4,229.7 C 265.3,229.7 266.2,229.6 267.1,229.5"/>
    <path d="M 267.1,229.5 L 355.6,213.9"/>
    <path d="M 355.6,213.9 C 369.7,211.4 380.4,199.1 380.4,184.3"/>
    <path d="M 380.4,184.3 V 32.4"/>
  </g>
</svg>
